<?xml version="1.0" encoding="utf-8"?>
<!-- Generator: Adobe Illustrator 22.1.0, SVG Export Plug-In . SVG Version: 6.00 Build 0)  -->
<svg version="1.1" id="Layer_1" xmlns="http://www.w3.org/2000/svg" xmlns:xlink="http://www.w3.org/1999/xlink" x="0px" y="0px"
	 viewBox="0 0 224 40" style="enable-background:new 0 0 224 40;" xml:space="preserve">
<style type="text/css">
	.st0{fill:#B1B2B4;}
</style>
<path class="st0" d="M18.1,22.2c0,1.1-0.4,2.1-1.1,2.9c-0.8,0.8-1.9,1.4-4,1.4h-6v-8.5h6c2.1,0,3.3,0.5,4,1.4
	C17.7,20.1,18.1,21.1,18.1,22.2 M15.4,9.2c0,0.8-0.4,1.7-0.9,2.2c-0.6,0.7-1.5,1.1-3.3,1.1H6.9V5.9h4.2c1.9,0,2.7,0.4,3.3,1.1
	C15,7.6,15.4,8.4,15.4,9.2 M19.4,14.2c1-1.1,2-3.2,2-5.2c0-2.5-1.2-4.8-2.9-6.3c-1.5-1.3-3.5-2.2-7-2.2H0.9v31.2h12.2
	c4,0,6.4-1.1,8.2-2.8c1.7-1.7,2.9-4.1,2.9-6.7C24.1,18.7,22.2,15.6,19.4,14.2 M42.3,21c0,3.3-2.3,5.9-5.7,5.9
	c-3.4,0-5.7-2.6-5.7-5.9c0-3.3,2.3-5.9,5.7-5.9C40,15,42.3,17.7,42.3,21 M48.1,21c0-6.2-5-11.3-11.5-11.3c-6.6,0-11.5,5-11.5,11.3
	c0,6.2,5,11.2,11.5,11.2C43.1,32.2,48.1,27.2,48.1,21 M65.9,24.2c-1.1,1.6-3,2.7-5.2,2.7c-3.3,0-5.7-2.5-5.7-5.9
	c0-3.1,2.2-5.9,5.6-5.9c2.2,0,4.1,1.1,5.4,2.7V24.2z M66.1,31.8h5.6V0.5h-5.8v11.1c-1.7-1.3-3.7-2-6.1-2c-5.9,0-10.6,4.9-10.6,11.3
	c0,2.9,1.1,5.6,2.8,7.6c1.9,2.2,5,3.7,8.2,3.7c2.2,0,4.2-0.7,6-2.2V31.8z M83.9,39.5l13.5-29.3h-6.1l-5.8,13l-6.3-13h-6.4l9.7,19.4
	l-4.6,9.9H83.9z M155.2,22.2c0,1.1-0.4,2.1-1.1,2.9c-0.8,0.8-1.9,1.4-4,1.4h-6v-8.5h6c2.1,0,3.3,0.5,4,1.4
	C154.8,20.1,155.2,21.1,155.2,22.2 M152.5,9.2c0,0.8-0.4,1.7-0.9,2.2c-0.6,0.7-1.5,1.1-3.3,1.1H144V5.9h4.2c1.9,0,2.7,0.4,3.3,1.1
	C152.2,7.6,152.5,8.4,152.5,9.2 M156.5,14.2c1-1.1,2-3.2,2-5.2c0-2.5-1.2-4.8-2.9-6.3c-1.5-1.3-3.5-2.2-7-2.2H138v31.2h12.2
	c4,0,6.4-1.1,8.2-2.8c1.7-1.7,2.9-4.1,2.9-6.7C161.2,18.7,159.3,15.6,156.5,14.2 M178.3,31.8h5.6V10.1H178v14.1
	c-0.8,1-2.6,2.7-5,2.7c-1.1,0-2.4-0.4-3.3-1.3c-0.7-0.8-1.1-1.7-1.1-3.7V10.1h-5.8v11.5c0,3.2,0.8,5.4,2.2,7.1
	c1.7,2.1,4.4,3.5,7.4,3.5c2.1,0,4.1-0.7,5.8-2.2V31.8z M197.4,15c0.8,0,1.6,0.1,2.1,0.2V9.8c-0.4,0-0.7-0.1-1.3-0.1
	c-2.6,0-5,1-6.3,2.6v-2.2h-5.6v21.6h5.8V18.2C192.9,16.9,194.9,15,197.4,15 M217.3,31.8h5.8v-11c0-3.7-0.8-5.9-2.2-7.6
	c-1.8-2.1-4.5-3.5-7.5-3.5c-2.4,0-4.5,0.8-6.1,2.2v-1.7h-5.6v21.6h5.8v-14c0.8-1.1,2.8-2.7,5.3-2.7c1.3,0,2.5,0.4,3.3,1.2
	c0.8,0.8,1.3,1.9,1.3,4.1V31.8z"/>
<path class="st0" d="M105,15h7.1v-4.9H105v-6h-5.8v6V15v7.6c0,3.1,0.5,5,1.6,6.5c1.5,2,4,3.1,7.5,3.1c1.1,0,2.9-0.2,3.6-0.4
	l-0.9-4.9c-0.4,0.1-1.5,0.2-2.4,0.2c-1.4,0-2.4-0.4-2.9-1.1c-0.5-0.6-0.7-1.4-0.7-2.7V15z M129.7,21c0,3.3-2.3,5.9-5.7,5.9
	c-3.4,0-5.7-2.6-5.7-5.9c0-3.3,2.3-5.9,5.7-5.9C127.4,15,129.7,17.7,129.7,21 M135.5,21c0-6.2-5-11.3-11.5-11.3s-11.5,5-11.5,11.3
	c0,6.2,5,11.2,11.5,11.2S135.5,27.2,135.5,21"/>
</svg>
