<?xml version="1.0" encoding="utf-8"?>
<!-- Generator: Adobe Illustrator 22.1.0, SVG Export Plug-In . SVG Version: 6.00 Build 0)  -->
<svg version="1.1" id="Layer_1" xmlns="http://www.w3.org/2000/svg" xmlns:xlink="http://www.w3.org/1999/xlink" x="0px" y="0px"
	 viewBox="0 0 236 68" style="enable-background:new 0 0 236 68;" xml:space="preserve">
<style type="text/css">
	.st0{fill:#1d1d1d;}
</style>
<polygon class="st0" points="44,67.8 26.4,67.8 31.7,41.5 23.3,41.5 18,67.8 0.4,67.8 13.6,2.5 31.2,2.5 26.5,25.6 34.9,25.6 
	39.6,2.5 57.2,2.5 "/>
<polygon class="st0" points="66.9,67.8 49.3,67.8 62.4,2.5 80.1,2.5 "/>
<polygon class="st0" points="89.7,67.8 72.1,67.8 85.3,2.5 102.9,2.5 "/>
<polygon class="st0" points="122,67.8 104.4,67.8 114.4,18.2 104.7,18.2 107.9,2.5 145.3,2.5 142.1,18.2 132,18.2 "/>
<g>
	<path class="st0" d="M177.1,67.8h-45.7l23-24.2c2.6-2.8,4.9-5.2,6.7-7.4c1.8-2.2,3.3-4.1,4.5-5.7c2.2-3.1,3.6-6.3,4.3-9.6
		c0.4-1.8,0.3-3.2-0.2-4.3c-0.5-1.1-1.4-1.6-2.7-1.6c-2.9,0-4.8,2.7-5.9,8.1c-0.1,0.3-0.1,0.6-0.2,1c-0.1,0.4-0.1,0.9-0.2,1.4h-17.4
		l0.4-2.4c1.4-6.7,4.5-12.1,9.5-16.4c5-4.3,10.8-6.4,17.2-6.4c6.2,0,10.9,2,14.1,6.1c3.2,4,4.1,9.2,2.8,15.6c-1,5.2-3.4,10.2-7.1,15
		c-1.9,2.4-4.2,5-6.9,7.7c-2.7,2.7-6,5.5-9.7,8.4c2.7-0.2,5.5-0.3,8.2-0.4c2.8-0.1,5.6-0.1,8.4-0.1L177.1,67.8z"/>
	<path class="st0" d="M207.4,23.8c-1.2,5.9-0.1,8.8,3.4,8.8c3.3,0,5.5-3,6.7-8.9c1.2-6.2,0.2-9.2-3.1-9.2
		C211,14.5,208.7,17.6,207.4,23.8 M190,67.8l14.4-18.9c0.5-0.7,1.2-1.5,1.9-2.4c0.7-0.9,1.6-1.8,2.4-2.9c-2.6,1.3-4.9,1.9-6.7,1.9
		c-4.6,0-8-2-10.4-6.1c-2.3-4.2-2.9-9.2-1.7-15.1c1.4-7.1,4.7-12.9,9.9-17.4c5.1-4.5,11.2-6.7,18-6.7c6.5,0,11.3,2.2,14.4,6.6
		c3.1,4.4,3.9,10.2,2.4,17.4c-1.6,7.7-7.3,18.3-17.2,31.9l-8.4,11.6H190z"/>
</g>
</svg>
