<?xml version="1.0" encoding="iso-8859-1"?>
<!-- Generator: Adobe Illustrator 19.0.0, SVG Export Plug-In . SVG Version: 6.00 Build 0)  -->
<svg version="1.1" id="Capa_1" xmlns="http://www.w3.org/2000/svg" xmlns:xlink="http://www.w3.org/1999/xlink" x="0px" y="0px"
	 viewBox="0 0 426.667 426.667" style="enable-background:new 0 0 426.667 426.667;" xml:space="preserve">
<path style="fill:#37474F;" d="M213.332,0C148.565,0.082,96.081,52.566,95.999,117.333c0.143,12.454,2.304,24.803,6.4,36.565
	c1.847,5.594,7.88,8.631,13.474,6.783c1.066-0.352,2.07-0.87,2.974-1.535c10.999-8.107,22.994-14.768,35.691-19.819
	c4.764-1.886,7.514-6.893,6.549-11.925c-5.862-28.866,12.787-57.018,41.653-62.88s57.018,12.787,62.88,41.653
	c1.422,7.004,1.422,14.222,0,21.226c-0.964,5.032,1.785,10.039,6.549,11.925c12.696,5.051,24.691,11.712,35.691,19.819
	c1.846,1.385,4.092,2.133,6.4,2.133c1.099,0.001,2.193-0.165,3.243-0.491c3.246-1.041,5.798-3.57,6.869-6.805
	c4.069-11.795,6.194-24.174,6.293-36.651C330.583,52.566,278.099,0.082,213.332,0z"/>
<path style="fill:#455A64;" d="M213.332,106.667c-100.053-0.094-181.239,80.939-181.333,180.992
	C31.95,339.87,54.429,389.564,93.674,424c1.938,1.725,4.445,2.675,7.04,2.667h225.237c2.595,0.008,5.102-0.941,7.04-2.667
	c75.205-65.992,82.674-180.454,16.683-255.659C315.237,129.097,265.543,106.618,213.332,106.667z"/>
<path style="fill:#607D8B;" d="M85.332,298.667c-5.891,0-10.667-4.776-10.667-10.667c0.094-76.544,62.122-138.573,138.667-138.667
	c5.891,0,10.667,4.776,10.667,10.667c0,5.891-4.776,10.667-10.667,10.667C148.565,170.749,96.081,223.233,95.999,288
	C95.999,293.891,91.223,298.667,85.332,298.667z"/>
<g>
</g>
<g>
</g>
<g>
</g>
<g>
</g>
<g>
</g>
<g>
</g>
<g>
</g>
<g>
</g>
<g>
</g>
<g>
</g>
<g>
</g>
<g>
</g>
<g>
</g>
<g>
</g>
<g>
</g>
</svg>
