<?xml version="1.0" encoding="utf-8"?>
<!-- Generator: Adobe Illustrator 19.1.0, SVG Export Plug-In . SVG Version: 6.00 Build 0)  -->
<!DOCTYPE svg PUBLIC "-//W3C//DTD SVG 1.1//EN" "http://www.w3.org/Graphics/SVG/1.1/DTD/svg11.dtd">
<svg version="1.1" id="Layer_1" xmlns="http://www.w3.org/2000/svg" xmlns:xlink="http://www.w3.org/1999/xlink" x="0px" y="0px"
	 width="80px" height="95px" viewBox="0 0 80 95" style="enable-background:new 0 0 80 95;" xml:space="preserve">
<style type="text/css">
	.st0{fill:#EB654A;}
	.st1{fill:#FFFFFF;}
</style>
<g>
	<path class="st0" d="M40,80c22.1,0,40-17.9,40-40S62.1,0,40,0S0,17.9,0,40S17.9,80,40,80"/>
	<path class="st1" d="M34.6,44.5c0,0.8-0.3,1.6-0.8,2.1c-0.6,0.6-1.4,1-3,1h-4.5v-6.3h4.5c1.6,0,2.4,0.4,3,1
		C34.3,42.9,34.6,43.6,34.6,44.5 M32.6,34.9c0,0.6-0.3,1.2-0.7,1.7c-0.5,0.5-1.1,0.8-2.5,0.8h-3.1v-5h3.1c1.4,0,2,0.3,2.5,0.8
		C32.4,33.7,32.6,34.3,32.6,34.9 M35.6,38.6c0.8-0.8,1.5-2.3,1.5-3.9c0-1.9-0.9-3.5-2.1-4.7c-1.1-1-2.6-1.6-5.2-1.6h-7.9v23.1h9
		c3,0,4.8-0.8,6-2.1c1.3-1.3,2.1-3,2.1-5C39.1,41.9,37.6,39.6,35.6,38.6"/>
	<path class="st1" d="M56.1,44.7c0,1.4-0.6,2.7-1.5,3.6c-0.9,0.9-2.1,1.4-4.1,1.4h-6.2v-9.9h6.2c2,0,3.2,0.6,4.1,1.4
		C55.5,42,56.1,43.3,56.1,44.7 M53.2,36.6c-0.7,0.7-1.7,1.2-3.4,1.2h-5.5v-7.5h5.5c1.8,0,2.7,0.5,3.4,1.2c0.6,0.7,1,1.6,1,2.5
		C54.2,35.1,53.8,36,53.2,36.6 M54.1,38.4c1.3-1,2.1-2.6,2.1-4.4c0-1.6-0.7-3.1-1.8-4.1c-1-1-2.4-1.6-4.5-1.6h-7.6v23.1h8.3
		c2.4,0,4-0.7,5.3-1.8c1.4-1.3,2.3-3,2.3-5.1C58.1,41.9,56.4,39.5,54.1,38.4"/>
</g>
<polygon class="st0" points="50.4,76.1 40.3,95 29.6,75.8 39.9,73.8 "/>
</svg>
