<?xml version="1.0" encoding="utf-8"?>
<!-- Generator: Adobe Illustrator 22.1.0, SVG Export Plug-In . SVG Version: 6.00 Build 0)  -->
<svg version="1.1" id="Layer_1" xmlns="http://www.w3.org/2000/svg" xmlns:xlink="http://www.w3.org/1999/xlink" x="0px" y="0px"
	 viewBox="0 0 336 144" style="enable-background:new 0 0 336 144;" xml:space="preserve">
<style type="text/css">
	.st0{fill:#DE6E5D;}
	.st1{fill:#FFFFFF;}
</style>
<path class="st0" d="M10.3,92.3V10.5h6.3h302.9h6.3v81.8l-67,41.3H77.3L10.3,92.3z M0.2,0.3v97.6l74.3,45.7h187.1l74.3-45.7V0.3H0.2
	z"/>
<g>
	<path class="st1" d="M102.4,61.7c3.1-1.6,4.7-4.7,4.7-8.2v-5.7c0-5.1-3.5-9.6-10.4-9.6H75.8v36h10.3v-11h6.1l4.7,11h10.7
		L102.4,61.7z M96.9,52c0,1.7-0.8,3-2.9,3h-7.8v-8.3h7.8c2.1,0,2.9,1.2,2.9,2.9V52z"/>
	<path class="st1" d="M132.8,38.1h-11.5c-6.9,0-10.3,4.5-10.3,9.7v16.8c0,5.1,3.5,9.7,10.3,9.7h11.5c6.9,0,10.4-4.5,10.4-9.7V47.8
		C143.2,42.6,139.7,38.1,132.8,38.1 M132.9,62.6c0,1.8-0.8,2.9-2.9,2.9h-5.8c-2.2,0-2.9-1.2-2.9-2.9V49.5c0-1.8,0.7-2.8,2.9-2.8h5.8
		c2.1,0,2.9,1.1,2.9,2.8V62.6z"/>
</g>
<polygon class="st1" points="215,38.2 242.2,38.2 242.2,47 225.3,47 225.3,52.7 238.9,52.7 238.9,61.5 225.3,61.5 225.3,74.1 
	215,74.1 "/>
<rect x="246.5" y="38.2" class="st1" width="10.2" height="36"/>
<polygon class="st1" points="292.7,46.9 282,46.9 282,74.1 271.7,74.1 271.7,46.9 261,46.9 261,38.2 292.7,38.2 "/>
<g>
	<path class="st1" d="M71.1,65.6H56.5c-2.2,0-2.9-1.2-2.9-2.9V49.5c0-1.8,0.7-2.8,2.9-2.8h14.6v-8.6H53.7c-6.9,0-10.3,4.5-10.3,9.7
		v16.8c0,5.1,3.5,9.7,10.3,9.7h17.4V65.6z"/>
	<path class="st1" d="M169.1,52.1h-9.7c-1.5,0-2.4-0.6-2.4-2.5v-0.1c0-1.7,0.7-2.8,2.9-2.8h15v-8.6h-17.4c-6.9,0-10.3,4.5-10.3,9.7
		v3.7c0,5.8,3.8,8.8,8.2,8.8h9.9h0c1.5,0,2.4,0.6,2.4,2.5v0.1c0,1.8-0.7,2.8-2.9,2.8h-17.2v8.6H167c6.9,0,10.3-4.5,10.3-9.7v-3.7
		C177.3,55,173.5,52.1,169.1,52.1"/>
	<path class="st1" d="M202.5,52.1h-9.7c-1.5,0-2.4-0.6-2.4-2.5v-0.1c0-1.7,0.7-2.8,2.9-2.8h15v-8.6h-17.4c-6.9,0-10.3,4.5-10.3,9.7
		v3.7c0,5.8,3.8,8.8,8.2,8.8h9.9c1.5,0,2.4,0.6,2.4,2.5v0.1c0,1.8-0.7,2.8-2.9,2.8H181v8.6h19.3c6.9,0,10.3-4.5,10.3-9.7v-3.7
		C210.7,55,206.9,52.1,202.5,52.1"/>
	<path class="st1" d="M122.3,93h-6.1c-0.9,0-1.5-0.4-1.5-1.6v0c0-1.1,0.5-1.8,1.8-1.8h9.4v-5.4H115c-4.3,0-6.5,2.8-6.5,6v2.3
		c0,3.6,2.4,5.5,5.1,5.5h6.2c0.9,0,1.5,0.4,1.5,1.6v0c0,1.1-0.5,1.8-1.8,1.8h-10.7v5.4h12.1c4.3,0,6.5-2.8,6.5-6v-2.3
		C127.4,94.8,125,93,122.3,93"/>
	<path class="st1" d="M198.9,93h-6c-0.9,0-1.5-0.4-1.5-1.6v0c0-1.1,0.5-1.8,1.8-1.8h9.4v-5.4h-10.9c-4.3,0-6.5,2.8-6.5,6v2.3
		c0,3.6,2.4,5.5,5.1,5.5h6.2c0.9,0,1.5,0.4,1.5,1.6v0c0,1.1-0.5,1.8-1.8,1.8h-10.7v5.4h12.1c4.3,0,6.5-2.8,6.5-6v-2.3
		C204,94.8,201.6,93,198.9,93"/>
	<path class="st1" d="M147.9,84.6c0,0,0.1-0.3,0.4-0.3h7.9v22.5h-6.5V95.9h-0.3l-3.1,10.5c0,0-0.1,0.4-0.5,0.4H141
		c-0.4,0-0.5-0.4-0.5-0.4l-3.1-10.5H137v10.9h-6.5V84.2h8c0.3,0,0.4,0.3,0.4,0.3l4.4,12h0.2L147.9,84.6z"/>
	<path class="st1" d="M176.2,85.2c-0.3-1-0.4-1-1.7-1h-7.2c-1.3,0-1.4,0-1.6,1c-0.5,1.6-6.5,21.5-6.5,21.5h6.9l1.2-4.7h7.3l1.2,4.7
		h6.9C182.7,106.8,176.7,86.8,176.2,85.2 M168.6,96.6l1.9-7.3h0.7l1.9,7.3H168.6z"/>
</g>
<polygon class="st1" points="206.9,84.2 213.4,84.2 213.4,92.5 221,92.5 221,84.2 227.4,84.2 227.4,106.8 221,106.8 221,98 
	213.4,98 213.4,106.8 206.9,106.8 "/>
</svg>
