<?xml version="1.0" encoding="iso-8859-1"?>
<!-- Generator: Adobe Illustrator 19.0.0, SVG Export Plug-In . SVG Version: 6.00 Build 0)  -->
<svg version="1.1" id="Capa_1" xmlns="http://www.w3.org/2000/svg" xmlns:xlink="http://www.w3.org/1999/xlink" x="0px" y="0px"
	 viewBox="0 0 496.919 496.919" style="enable-background:new 0 0 496.919 496.919;" xml:space="preserve">
<rect x="245.053" y="83.31" transform="matrix(-0.9535 0.3015 -0.3015 -0.9535 611.5653 372.2905)" style="fill:#ED6262;" width="64.002" height="300.057"/>
<polygon style="fill:#E95353;" points="270.787,72.828 195.616,72.828 144.121,418.987 233.209,496.919 322.282,418.987 "/>
<path style="fill:#ED6262;" d="M241.339,472.7c0-7.82-6.361-14.088-14.181-14.088H205.22c-6.268,0-11.823-4.499-11.823-13.002
	c-0.45-6.454,4.732-11.823,11.186-11.823h35.421c7.727,0,14.538-5.725,15.003-13.452c0.357-8.099-6.082-14.91-14.181-14.91h-33.652
	c-7.152,0-12.552-6.237-11.823-12.722v-0.186c-0.093-6.904,5.539-12.552,12.459-12.552h31.387c7.727,0,14.553-5.725,15.003-13.359
	c0.357-8.176-6.097-14.91-14.181-14.91h-39.393c-6.811,0-11.9-5.818-11.807-12.629c0,0,0-0.093,0-0.186v-0.093
	c-0.093-6.904,4.996-12.645,11.807-12.645h51.2c7.633,0,14.445-5.725,14.91-13.359c0.357-8.176-6.097-14.91-14.181-14.91
	l-49.555-0.016c-8.068,0-14.553-6.749-14.134-14.91c0.403-7.649,7.277-13.39,14.926-13.39h35.7
	c7.633-0.217,13.777-6.47,13.777-14.134c0-7.82-6.361-14.181-14.181-14.181h-41.627c-6.547,0-11.916-5.368-11.823-11.916
	c0-8.828,5.12-12.909,11.186-12.909h43.179c7.727,0,14.538-5.725,15.003-13.359c0.357-8.176-6.082-14.91-14.181-14.91h-33.652
	c-6.547,0-11.916-5.368-11.916-11.916c1.086-9.635,5.927-13.545,12.552-13.545h26.841c7.727,0,14.538-5.725,15.003-13.452
	c0.357-8.083-6.082-14.91-14.181-14.91h-30.301c-6.811,0-11.916-5.725-11.823-12.536c0-0.093,0-0.093,0-0.186
	c0-0.093,0-0.093,0-0.186c-0.093-6.811,4.996-12.552,11.823-12.552h28.47c7.633,0,14.445-5.725,14.91-13.359
	c0.372-8.176-6.097-14.91-14.181-14.91h-39.905l-50.347,338.385l77.607,67.894h5.43C234.978,486.881,241.339,480.52,241.339,472.7z"
	/>
<polygon style="opacity:0.1;enable-background:new    ;" points="273.75,92.765 270.787,72.844 195.616,72.844 192.653,92.765 "/>
<path style="fill:#ED6262;" d="M274.061,0h-81.687c-8.564,0-15.515,6.951-15.515,15.515v49.602c0,8.564,6.951,15.515,15.515,15.515
	h81.687c8.564,0,15.515-6.951,15.515-15.515V15.515C289.576,6.951,282.625,0,274.061,0z"/>
<g>
</g>
<g>
</g>
<g>
</g>
<g>
</g>
<g>
</g>
<g>
</g>
<g>
</g>
<g>
</g>
<g>
</g>
<g>
</g>
<g>
</g>
<g>
</g>
<g>
</g>
<g>
</g>
<g>
</g>
</svg>
